<svg width="32" height="32" viewBox="0 0 32 32" xmlns="http://www.w3.org/2000/svg">
  <defs>
    <linearGradient id="docGradient" x1="0%" y1="0%" x2="100%" y2="100%">
      <stop offset="0%" style="stop-color:#6C63FF;stop-opacity:1" />
      <stop offset="100%" style="stop-color:#4e4edb;stop-opacity:1" />
    </linearGradient>
    <linearGradient id="chatGradient" x1="0%" y1="0%" x2="100%" y2="100%">
      <stop offset="0%" style="stop-color:#FF6584;stop-opacity:1" />
      <stop offset="100%" style="stop-color:#e94c6b;stop-opacity:1" />
    </linearGradient>
  </defs>

  <!-- Background circle -->
  <circle cx="16" cy="16" r="15" fill="#f8f9fa" stroke="#e9ecef" stroke-width="1"/>
  
  <!-- Document Icon -->
  <rect x="6" y="8" width="12" height="15" rx="2" fill="url(#docGradient)"/>
  <line x1="8" y1="12" x2="16" y2="12" stroke="#fff" stroke-width="1"/>
  <line x1="8" y1="15" x2="16" y2="15" stroke="#fff" stroke-width="1"/>
  <line x1="8" y1="18" x2="14" y2="18" stroke="#fff" stroke-width="1"/>
  
  <!-- Chat Bubble Icon -->
  <path d="M20,10 h8 a2,2 0 0 1 2,2 v6 a2,2 0 0 1 -2,2 h-6 l-2,2 v-2 h-2 a2,2 0 0 1 -2,-2 v-6 a2,2 0 0 1 2,-2 z"
        fill="url(#chatGradient)"/>
  <circle cx="22" cy="15" r="1" fill="#fff"/>
  <circle cx="25" cy="15" r="1" fill="#fff"/>
  <circle cx="28" cy="15" r="1" fill="#fff"/>
  
  <!-- AI indicator dot -->
  <circle cx="26" cy="8" r="2" fill="#00C9A7"/>
  <circle cx="26" cy="8" r="1" fill="#fff"/>
</svg>
